<?xml version="1.0" encoding="UTF-8"?>
<svg width="835" height="835" version="1.1" viewBox="0 0 835 835" xml:space="preserve" xmlns="http://www.w3.org/2000/svg" xmlns:cc="http://creativecommons.org/ns#" xmlns:dc="http://purl.org/dc/elements/1.1/" xmlns:rdf="http://www.w3.org/1999/02/22-rdf-syntax-ns#"><metadata><rdf:RDF><cc:Work rdf:about=""><dc:format>image/svg+xml</dc:format><dc:type rdf:resource="http://purl.org/dc/dcmitype/StillImage"/><dc:title/></cc:Work></rdf:RDF></metadata><defs><clipPath id="clipPath26"><path d="m0 900h600v-900h-600z"/></clipPath></defs><g transform="matrix(1.3333 0 0 -1.3333 13.336 1016.2)"><g clip-path="url(#clipPath26)"><g transform="translate(557.21,396)"><path d="m0 0h-36.356s3e-3 -0.596 3e-3 -0.902c0-142.98-86.032-222.45-206.41-222.45-120.38 0-229.52 79.483-229.52 222.46 0 142.97 102.92 325.21 223.3 325.21 94.156 0 171.22-110.31 200.19-227.31h-352.41v-37h395.02c-1.412 9-3.27 20-5.364 29h0.092c-0.502 2-1.021 4.771-1.553 6.996-0.052 0.229-0.099 1.004-0.151 1.004h-0.014c-32.648 135-123.4 267.61-235.43 267.61-140.99 0-261.88-209.87-261.88-371.39s126.18-252.14 267.17-252.14 243.39 90.502 243.39 252.02c0 2.348-0.023 4.902-0.069 6.902" fill="#00c1ad"/></g></g></g></svg>
